<?xml version="1.0" standalone="no"?>
<!DOCTYPE svg PUBLIC "-//W3C//DTD SVG 20010904//EN"
 "http://www.w3.org/TR/2001/REC-SVG-20010904/DTD/svg10.dtd">
<svg version="1.0" xmlns="http://www.w3.org/2000/svg"
 width="300.000000pt" height="300.000000pt" viewBox="0 0 300.000000 300.000000"
 preserveAspectRatio="xMidYMid meet">

<g transform="translate(0.000000,300.000000) scale(0.100000,-0.100000)"
fill="#000000" stroke="none">
<path d="M490 2984 c-232 -49 -426 -246 -475 -479 -22 -104 -22 -1906 0 -2010
49 -236 244 -431 480 -480 104 -22 1906 -22 2010 0 236 49 431 244 480 480 22
104 22 1906 0 2010 -49 236 -244 431 -480 480 -101 21 -1916 21 -2015 -1z
m435 -419 c93 -54 129 -175 82 -278 -62 -135 -234 -170 -340 -69 -120 114 -80
310 75 369 49 19 131 9 183 -22z m73 -1252 l-3 -688 -185 0 -185 0 -3 675 c-1
371 0 681 3 688 3 9 51 12 190 12 l185 0 -2 -687z m627 579 c0 -56 2 -102 5
-102 3 1 17 18 32 40 61 89 202 157 343 167 189 13 358 -81 435 -242 56 -118
61 -170 58 -675 l-3 -455 -185 0 -185 0 -5 410 c-5 407 -5 410 -29 458 -79
159 -278 182 -395 46 -65 -76 -67 -92 -69 -526 l-2 -388 -185 0 -185 0 -3 688
-2 687 187 -2 188 -3 0 -103z" style="fill:rgb(255,255,255)"/>
</g>
</svg>
