
<svg version="1.0" xmlns="http://www.w3.org/2000/svg"
 width="900.000000pt" height="512.000000pt" viewBox="0 0 900.000000 512.000000"
 preserveAspectRatio="xMidYMid meet">

<g transform="translate(0.000000,512.000000) scale(0.100000,-0.100000)"
fill="#000000" stroke="none">
<path d="M4353 5110 c-608 -53 -1142 -465 -1354 -1043 -148 -407 -123 -866 71
-1258 69 -140 163 -270 311 -431 463 -501 787 -1019 970 -1548 73 -208 139
-516 139 -646 0 -35 3 -45 10 -34 5 8 10 33 10 55 0 64 27 224 59 357 147 599
496 1211 1015 1777 165 181 170 187 240 289 325 479 362 1104 95 1624 -212
412 -608 721 -1057 822 -168 38 -344 50 -509 36z m282 -965 c179 -37 353 -171
434 -335 93 -190 94 -388 2 -575 -107 -217 -328 -355 -571 -355 -104 0 -177
17 -280 67 -395 190 -482 712 -171 1024 156 155 370 219 586 174z"  style="fill:#e2b261"/>
</g>
</svg>
