<?xml version="1.0" standalone="no"?>
<!DOCTYPE svg PUBLIC "-//W3C//DTD SVG 20010904//EN"
 "http://www.w3.org/TR/2001/REC-SVG-20010904/DTD/svg10.dtd">
<svg version="1.0" xmlns="http://www.w3.org/2000/svg"
 width="2000.000000pt" height="2000.000000pt" viewBox="0 0 2000.000000 2000.000000"
 preserveAspectRatio="xMidYMid meet">

<g transform="translate(0.000000,2000.000000) scale(0.100000,-0.100000)"
fill="#000000" stroke="none">
<path d="M9580 19754 c-351 -19 -652 -47 -955 -90 -1764 -247 -3443 -986
-4825 -2125 -459 -379 -908 -823 -1280 -1269 -747 -893 -1315 -1880 -1704
-2958 -787 -2180 -768 -4595 54 -6772 152 -404 409 -952 620 -1324 695 -1228
1636 -2285 2770 -3111 1229 -895 2652 -1491 4144 -1735 3433 -563 6878 719
9096 3385 1237 1486 1992 3264 2205 5190 64 584 71 1298 19 1900 -164 1897
-873 3692 -2048 5184 -781 993 -1733 1814 -2832 2447 -244 141 -734 385 -988
493 -1035 441 -2014 678 -3186 771 -131 11 -959 21 -1090 14z m-60 -964 c0 -5
-2 -10 -4 -10 -3 0 -8 5 -11 10 -3 6 -1 10 4 10 6 0 11 -4 11 -10z m980 6 c0
-3 -4 -8 -10 -11 -5 -3 -10 -1 -10 4 0 6 5 11 10 11 6 0 10 -2 10 -4z m-985
-4894 c-7 -7 -365 15 -620 39 -458 42 -937 115 -1405 215 -417 89 -1038 260
-1032 285 19 80 359 774 523 1069 407 731 888 1407 1454 2046 192 218 703 729
915 917 l165 146 3 -2356 c1 -1296 0 -2358 -3 -2361z m1160 4547 c300 -265
744 -720 1036 -1059 474 -552 917 -1185 1283 -1835 230 -408 568 -1112 541
-1127 -26 -15 -399 -121 -625 -178 -612 -153 -1206 -255 -1805 -309 -222 -20
-519 -41 -587 -41 l-38 0 0 2362 0 2362 28 -25 c15 -14 90 -81 167 -150z
m-2666 51 c-554 -594 -946 -1085 -1344 -1685 -201 -303 -326 -505 -472 -763
-190 -336 -462 -883 -598 -1207 -21 -49 -39 -91 -41 -93 -1 -2 -71 26 -155 61
-624 263 -1211 570 -1786 935 -151 96 -180 118 -173 132 18 34 489 507 640
643 983 887 2106 1526 3359 1908 172 53 612 168 645 169 12 0 -11 -31 -75
-100z m4099 55 c1416 -346 2717 -1041 3823 -2041 137 -124 612 -603 629 -634
7 -14 -21 -35 -173 -132 -575 -365 -1162 -672 -1786 -935 -84 -35 -154 -63
-155 -61 -2 2 -20 44 -41 93 -117 277 -345 746 -501 1033 -525 957 -1114 1766
-1913 2622 -51 55 -87 100 -80 100 8 0 97 -20 197 -45z m-9048 -3583 c623
-401 1356 -784 2032 -1062 l126 -52 -13 -41 c-342 -1047 -544 -2128 -601
-3209 l-7 -128 -1699 0 -1698 0 5 53 c2 28 9 113 15 187 124 1546 677 3081
1560 4328 50 71 52 73 73 58 12 -8 105 -69 207 -134z m14274 -92 c820 -1228
1314 -2636 1440 -4105 9 -99 18 -206 21 -237 l5 -58 -1698 0 -1698 0 -17 268
c-68 1041 -249 1986 -581 3033 l-24 77 152 63 c531 219 1168 541 1669 841 167
100 459 285 522 330 l40 29 23 -28 c12 -15 78 -111 146 -213z m-11000 -1410
c748 -221 1465 -366 2246 -454 284 -32 720 -66 863 -66 l77 0 0 -1235 0 -1235
-1986 0 -1986 0 6 103 c53 803 160 1496 341 2202 91 355 210 745 226 745 6 0
102 -27 213 -60z m7595 -67 c288 -915 452 -1811 517 -2820 l6 -103 -1986 0
-1986 0 0 1235 0 1235 78 0 c83 0 425 23 613 40 855 79 1766 256 2539 494 80
24 153 45 162 45 13 1 26 -27 57 -126z m-9335 -3915 c2 -18 10 -132 16 -253
48 -945 233 -1980 522 -2915 28 -91 51 -171 52 -178 1 -7 -76 -45 -184 -91
-681 -287 -1353 -643 -1987 -1051 l-183 -119 -51 72 c-381 539 -729 1189 -984
1837 -312 793 -503 1623 -575 2490 -5 69 -12 151 -15 183 l-5 57 1695 0 1694
0 5 -32z m4926 -1203 l0 -1235 -73 0 c-142 0 -582 -33 -867 -66 -798 -90
-1523 -238 -2282 -465 -109 -32 -202 -59 -206 -59 -10 0 -27 52 -108 334 -160
553 -283 1147 -353 1711 -41 320 -81 793 -81 946 l0 69 1985 0 1985 0 0 -1235z
m4930 1172 c0 -94 -18 -357 -40 -587 -60 -608 -149 -1124 -296 -1709 -75 -298
-193 -701 -205 -701 -5 0 -98 27 -207 59 -759 227 -1484 375 -2282 465 -285
33 -725 66 -867 66 l-73 0 0 1235 0 1235 1985 0 1985 0 0 -63z m4346 21 c-3
-24 -8 -86 -11 -138 -9 -142 -43 -443 -71 -635 -192 -1291 -655 -2495 -1380
-3585 -68 -102 -134 -198 -146 -213 l-23 -29 -25 20 c-43 33 -337 220 -515
327 -509 306 -1117 615 -1635 830 -91 38 -168 71 -172 74 -4 4 15 78 43 166
288 923 481 1991 529 2940 6 121 14 235 16 253 l5 32 1695 0 1695 0 -5 -42z
m-9276 -5783 c0 -1323 -2 -2405 -5 -2405 -3 0 -69 57 -148 127 -514 459 -1008
986 -1417 1513 -476 613 -880 1258 -1225 1955 -140 282 -294 624 -298 659 -2
17 22 27 213 83 585 174 1243 311 1880 392 265 34 755 76 933 80 l67 1 0
-2405z m1410 2379 c822 -63 1650 -216 2445 -451 105 -31 193 -59 198 -63 14
-12 -166 -418 -324 -730 -662 -1312 -1534 -2448 -2622 -3418 -75 -67 -139
-122 -142 -122 -3 0 -5 1083 -5 2406 l0 2407 128 -7 c70 -4 215 -14 322 -22z
m-5327 -1034 c573 -1312 1314 -2449 2280 -3500 58 -63 105 -116 103 -117 -4
-5 -354 89 -535 143 -677 203 -1371 510 -1970 871 -722 435 -1337 933 -1923
1556 l-130 139 49 33 c510 343 1315 770 1968 1042 39 16 71 29 71 29 1 -1 40
-89 87 -196z m9332 0 c478 -216 983 -490 1452 -788 l182 -116 -22 -30 c-36
-52 -574 -586 -702 -698 -1091 -952 -2292 -1591 -3654 -1942 -96 -25 -176 -44
-177 -43 -2 1 43 52 98 112 620 674 1114 1338 1582 2124 256 430 548 1008 742
1472 l45 107 147 -63 c81 -34 219 -95 307 -135z"
style="fill:rgb(45, 56, 68)"/>
</g>
</svg>
