<?xml version="1.0" standalone="no"?>
<!DOCTYPE svg PUBLIC "-//W3C//DTD SVG 20010904//EN"
 "http://www.w3.org/TR/2001/REC-SVG-20010904/DTD/svg10.dtd">
<svg version="1.0" xmlns="http://www.w3.org/2000/svg"
 width="512.000000pt" height="512.000000pt" viewBox="0 0 512.000000 512.000000"
 preserveAspectRatio="xMidYMid meet">

<g transform="translate(0.000000,512.000000) scale(0.100000,-0.100000)"
fill="#000000" stroke="none">
<path d="M512 4465 c-35 -8 -88 -26 -119 -40 -56 -25 -56 -26 -37 -44 127
-120 2193 -1915 2204 -1915 11 0 2077 1795 2204 1915 19 18 19 19 -36 44 -125
57 -22 55 -2173 54 -1635 0 -1991 -3 -2043 -14z" style="fill:#e2b261"/>
<path d="M77 4137 c-14 -23 -35 -73 -48 -112 l-24 -70 -3 -1355 c-3 -1403 -2
-1425 38 -1534 41 -109 -43 -189 844 803 438 491 799 898 802 905 3 9 -300
281 -790 709 l-795 696 -24 -42z"  style="fill:#e2b261"/>
<path d="M4225 3485 c-434 -381 -789 -699 -789 -708 1 -8 360 -416 799 -907
888 -993 804 -913 845 -804 40 109 41 131 38 1534 l-3 1355 -24 70 c-19 56
-68 158 -74 154 -1 0 -357 -312 -792 -694z"  style="fill:#e2b261"/>
<path d="M1126 1661 c-446 -499 -811 -912 -813 -917 -4 -13 85 -58 162 -81 57
-17 161 -18 2085 -18 1924 0 2028 1 2085 18 65 20 165 66 165 77 0 5 -1402
1580 -1592 1787 l-38 43 -266 -233 c-145 -127 -277 -237 -292 -244 -35 -15
-89 -15 -124 0 -15 7 -145 116 -289 242 -145 127 -265 231 -268 232 -3 1 -370
-407 -815 -906z"  style="fill:#e2b261"/>
</g>
</svg>
