<?xml version="1.0" standalone="no"?>
<!DOCTYPE svg PUBLIC "-//W3C//DTD SVG 20010904//EN"
 "http://www.w3.org/TR/2001/REC-SVG-20010904/DTD/svg10.dtd">
<svg version="1.0" xmlns="http://www.w3.org/2000/svg"
 width="512.000000pt" height="512.000000pt" viewBox="0 0 512.000000 512.000000"
 preserveAspectRatio="xMidYMid meet">

<g transform="translate(0.000000,512.000000) scale(0.100000,-0.100000)"
fill="#000000" stroke="none">
<path d="M2285 4675 c-708 -93 -1326 -538 -1640 -1180 -289 -592 -289 -1278 0
-1870 323 -661 956 -1104 1694 -1185 170 -19 442 -8 614 24 755 143 1380 685
1626 1413 149 439 149 927 0 1366 -265 782 -964 1345 -1784 1437 -122 13 -387
11 -510 -5z m924 -1480 l634 -634 -152 -160 -153 -160 -307 312 c-168 172
-337 345 -375 385 -38 39 -73 72 -78 72 -4 0 -8 -389 -8 -865 l0 -865 -210 0
-210 0 0 865 c0 476 -4 865 -8 865 -5 0 -42 -35 -83 -77 -40 -43 -210 -216
-376 -385 l-302 -307 -152 160 -152 160 634 634 c349 349 641 635 649 635 8 0
300 -286 649 -635z"  style="fill:#e2b261"/>
</g>
</svg>
